<svg xmlns="http://www.w3.org/2000/svg" xmlns:xlink="http://www.w3.org/1999/xlink" width="1059.407" height="828.968" viewBox="0 0 1059.407 828.968">
  <defs>
    <clipPath id="clip-path">
      <rect id="SVGID" width="937.081" height="620.706" transform="translate(0 0)" fill="#fff"/>
    </clipPath>
  </defs>
  <g id="Group_122" data-name="Group 122" transform="matrix(-0.97, 0.242, -0.242, -0.97, 1059.407, 602.268)" opacity="0.32">
    <g id="Group_121" data-name="Group 121" transform="translate(0 0)" clip-path="url(#clip-path)">
      <path id="Path_32" data-name="Path 32" d="M923.389,492.359l13.693-7.617-32.991-47.807-3.913,2.178Zm-58.02-69.667-1.013-4.359-34.165,2.2,3.551,15.26Zm-4.7,120.031,15.406,2.861,13.333-102.472-4.4-.816ZM21.373,369.84a48.271,48.271,0,0,0,66.986-13.175L219.2,161.735,262.522,459.05l.165,1.142A37.776,37.776,0,0,0,331.4,475.677l145.931-217.16L521.1,547.365l.144.937a27.755,27.755,0,0,0,50.035,11.86l129.3-181.533,16.259,224.3.121,1.669a17.44,17.44,0,0,0,31.521,8.882L874.724,438.62l-3.407-2.905L751.15,559.313l-8.908-247.886a23.053,23.053,0,0,0-41.361-13.162l-.488.64L568.2,472.089,530.528,164.2A33.175,33.175,0,0,0,470.564,149l-.533.751-143.75,202.1L289.065,38.163a43.249,43.249,0,0,0-78.179-20l-.682.958L8.956,301.742c-.213.3-.549.79-.756,1.1a48.288,48.288,0,0,0,13.173,67m866.839,63.851a14.463,14.463,0,1,0-14.462-14.464,14.463,14.463,0,0,0,14.462,14.464" transform="translate(-0.001 0.001)" fill="#fff"/>
    </g>
  </g>
</svg>
