<svg xmlns="http://www.w3.org/2000/svg" xmlns:xlink="http://www.w3.org/1999/xlink" width="1610.421" height="1331.784" viewBox="0 0 1610.421 1331.784">
  <defs>
    <clipPath id="clip-path">
      <rect id="SVGID" width="1380.865" height="914.661" fill="#0f1464"/>
    </clipPath>
  </defs>
  <g id="Group_171" data-name="Group 171" transform="matrix(0.94, 0.342, -0.342, 0.94, 312.832, 0)" opacity="0.2">
    <g id="Group_170" data-name="Group 170" transform="translate(0)" clip-path="url(#clip-path)">
      <path id="Path_37" data-name="Path 37" d="M1360.69,189.124l20.177,11.224L1332.252,270.8l-5.767-3.21Zm-85.5,102.661-1.493,6.424-50.344-3.245,5.233-22.486Zm-6.93-176.876,22.7-4.216,19.647,151-6.482,1.2ZM31.5,369.666A71.131,71.131,0,0,1,130.2,389.081L323.013,676.326l63.834-438.118.244-1.682a55.665,55.665,0,0,1,101.257-22.819l215.041,320,64.5-425.641.213-1.381A40.9,40.9,0,0,1,841.829,89.21l190.54,267.5,23.959-330.522.178-2.46a25.7,25.7,0,0,1,46.449-13.088l186.022,257.669-5.02,4.281L1106.881,90.463l-13.127,365.28a33.971,33.971,0,0,1-60.949,19.4l-.719-.944-194.8-255.2-55.507,453.7a48.886,48.886,0,0,1-88.362,22.4l-.785-1.106L480.8,396.182,425.961,858.419a63.731,63.731,0,0,1-115.2,29.467l-1.005-1.412L13.2,470.014c-.313-.445-.808-1.164-1.114-1.617A71.156,71.156,0,0,1,31.5,369.666m1277.358-94.09a21.312,21.312,0,1,1-21.311,21.314,21.312,21.312,0,0,1,21.311-21.314" transform="translate(-0.002 0.004)" fill="#0f1464"/>
    </g>
  </g>
</svg>
