<svg xmlns="http://www.w3.org/2000/svg" xmlns:xlink="http://www.w3.org/1999/xlink" width="599" height="541" viewBox="0 0 599 541">
  <defs>
    <clipPath id="clip-path">
      <rect id="Rectangle_132" data-name="Rectangle 132" width="599" height="541" transform="translate(0 4397)" fill="#fff" stroke="#707070" stroke-width="1"/>
    </clipPath>
    <clipPath id="clip-path-2">
      <rect id="SVGID" width="937.081" height="620.706" fill="#fff"/>
    </clipPath>
  </defs>
  <g id="Mask_Group_9" data-name="Mask Group 9" transform="translate(0 -4397)" clip-path="url(#clip-path)">
    <g id="Group_119" data-name="Group 119" transform="matrix(0.982, -0.191, 0.191, 0.982, -394.983, 4546.166)" opacity="0.1">
      <g id="Group_117" data-name="Group 117" transform="translate(0)" clip-path="url(#clip-path-2)">
        <path id="Path_31" data-name="Path 31" d="M1703.389,541.493l13.693,7.617-32.991,47.807-3.913-2.178Zm-58.02,69.667-1.013,4.359-34.165-2.2,3.551-15.26Zm-4.7-120.031,15.406-2.861,13.333,102.472-4.4.816ZM801.373,664.012a48.271,48.271,0,0,1,66.986,13.175L999.2,872.117,1042.522,574.8l.165-1.142a37.776,37.776,0,0,1,68.715-15.485l145.931,217.16L1301.1,486.487l.144-.937a27.755,27.755,0,0,1,50.035-11.86l129.3,181.533,16.259-224.3.121-1.669a17.44,17.44,0,0,1,31.521-8.882l126.238,174.859-3.407,2.905-120.167-123.6-8.908,247.886a23.053,23.053,0,0,1-41.361,13.162l-.488-.64L1348.2,561.763,1310.528,869.65a33.175,33.175,0,0,1-59.964,15.2l-.533-.751-143.75-202.1-37.217,313.682a43.249,43.249,0,0,1-78.179,20l-.682-.958L788.957,732.11c-.213-.3-.549-.79-.756-1.1a48.288,48.288,0,0,1,13.173-67m866.839-63.851a14.463,14.463,0,1,1-14.462,14.464,14.463,14.463,0,0,1,14.462-14.464" transform="translate(-780.001 -413.148)" fill="#fff"/>
      </g>
    </g>
  </g>
</svg>
