<svg xmlns="http://www.w3.org/2000/svg" width="361.109" height="49.793" viewBox="0 0 361.109 49.793">
  <g id="Group_169" data-name="Group 169" transform="translate(-821.214 -1234.324)">
    <path id="Path_4" data-name="Path 4" d="M-247.471,472.344a10.949,10.949,0,0,0-8.688-3.884c-6.338,0-11.96,4.906-11.96,12.879v.1c0,7.922,5.519,12.828,12.317,12.828a10.686,10.686,0,0,0,8.484-4.14V491.2c0,4.4-2.4,6.8-7.207,6.8a19.082,19.082,0,0,1-9.659-2.606l-3.118,6.439A29.555,29.555,0,0,0-253.5,505c5.775,0,9.659-1.329,12.164-3.884,2.453-2.4,3.577-5.98,3.577-11.039V469.1h-9.711Zm.2,9.1a5.35,5.35,0,0,1-5.673,5.367c-3.322,0-5.673-2.249-5.673-5.316v-.1a5.359,5.359,0,0,1,5.673-5.417,5.379,5.379,0,0,1,5.673,5.367Zm41.813-14.764h10.069V459.5h-10.069Zm.205,30.129h9.659V469.1h-9.659ZM-217.1,468.55c-3.935,0-6.491,2.2-8.28,4.5V469.1h-9.711v27.709h9.711V481.839c0-3.067,1.738-4.7,4.089-4.7s3.935,1.635,3.935,4.7v14.967h9.66V478.721c0-6.286-3.527-10.171-9.4-10.171m-63.282,28.256h9.9V460.9h-9.9Zm100.074-34.734h-9.659V469.1h-3.271v7.657h3.271v11.295c0,6.594,3.424,9.149,9.25,9.149a13.84,13.84,0,0,0,6.746-1.635V488a8.517,8.517,0,0,1-3.68.919c-1.789,0-2.657-.818-2.657-2.76v-9.4h6.44V469.1h-6.44Zm21.51,6.244c-8.164,0-13.929,6.377-13.929,14.44v.1c0,8.522,6.123,14.339,14.8,14.339a14.428,14.428,0,0,0,11.94-5.613l-5.358-4.439c-1.989,1.939-3.776,2.806-6.123,2.806a5.7,5.7,0,0,1-5.97-4.541h18.471c.05-.663.05-1.378.05-1.99,0-8.113-4.388-15.1-13.879-15.1m-4.8,12.143c.511-3.061,2.245-5,4.8-5,2.654,0,4.49,1.939,4.848,5Zm40.43-20.342-5-2.183-9.911,27.57,1.429.624Zm-9.133,31.731.43,1.5,9.153-.594-1.5-5.245Zm10.528-18.474-12.476,14.077,1.053,1.15,15.109-11.2Zm-17.218,14.545a4.639,4.639,0,0,0-4.638,4.638,4.638,4.638,0,0,0,4.638,4.638,4.638,4.638,0,0,0,4.638-4.638,4.639,4.639,0,0,0-4.638-4.638" transform="translate(1101.599 779.115)" fill="#0f1464"/>
    <line id="Line_1" data-name="Line 1" y2="38.547" transform="translate(1004.87 1241.448)" fill="none" stroke="#0f1464" stroke-width="4"/>
    <text id="The_Sound" data-name="The Sound" transform="translate(1026.323 1270.324)" fill="#0f1464" font-size="33" font-family="SegoeUI, Segoe UI"><tspan x="0" y="0">The Sound</tspan></text>
  </g>
</svg>
